<svg width="1440" height="1024" viewBox="0 0 1440 1024" fill="none" xmlns="http://www.w3.org/2000/svg">
<g filter="url(#filter0_d)">
<circle cx="1359.38" cy="50.3779" r="173.378" fill="#87FF8C"/>
</g>
<g filter="url(#filter1_d)">
<path d="M1162.74 718.667C1087.22 631.857 1096.37 500.262 1183.18 424.742C1269.99 349.221 1401.59 358.374 1477.11 445.184L1749.66 758.475C1825.18 845.285 1816.02 976.88 1729.21 1052.4C1642.4 1127.92 1510.81 1118.77 1435.29 1031.96L1162.74 718.667Z" fill="#E7FF87"/>
</g>
<g filter="url(#filter2_d)">
<path d="M38.6991 846.803C-21.3338 748.825 9.42676 620.732 107.405 560.699C205.383 500.666 333.476 531.427 393.509 629.405L610.907 984.214C670.94 1082.19 640.179 1210.29 542.201 1270.32C444.223 1330.35 316.13 1299.59 256.097 1201.61L38.6991 846.803Z" fill="#FF8787"/>
</g>
<g filter="url(#filter3_d)">
<path d="M310.269 239.016C244.399 144.864 267.326 15.1396 361.478 -50.7309C455.631 -116.601 585.355 -93.6743 651.225 0.478191L889.764 341.435C955.634 435.587 932.707 565.311 838.555 631.182C744.402 697.052 614.678 674.125 548.807 579.973L310.269 239.016Z" fill="#87FF8C"/>
</g>
<defs>
<filter id="filter0_d" x="1182" y="-123" width="354.756" height="354.756" filterUnits="userSpaceOnUse" color-interpolation-filters="sRGB">
<feFlood flood-opacity="0" result="BackgroundImageFix"/>
<feColorMatrix in="SourceAlpha" type="matrix" values="0 0 0 0 0 0 0 0 0 0 0 0 0 0 0 0 0 0 127 0"/>
<feOffset dy="4"/>
<feGaussianBlur stdDeviation="2"/>
<feColorMatrix type="matrix" values="0 0 0 0 0 0 0 0 0 0 0 0 0 0 0 0 0 0 0.25 0"/>
<feBlend mode="normal" in2="BackgroundImageFix" result="effect1_dropShadow"/>
<feBlend mode="normal" in="SourceGraphic" in2="effect1_dropShadow" result="shape"/>
</filter>
<filter id="filter1_d" x="1022" y="288" width="868.398" height="909.142" filterUnits="userSpaceOnUse" color-interpolation-filters="sRGB">
<feFlood flood-opacity="0" result="BackgroundImageFix"/>
<feColorMatrix in="SourceAlpha" type="matrix" values="0 0 0 0 0 0 0 0 0 0 0 0 0 0 0 0 0 0 127 0"/>
<feOffset dy="4"/>
<feGaussianBlur stdDeviation="2"/>
<feColorMatrix type="matrix" values="0 0 0 0 0 0 0 0 0 0 0 0 0 0 0 0 0 0 0.25 0"/>
<feBlend mode="normal" in2="BackgroundImageFix" result="effect1_dropShadow"/>
<feBlend mode="normal" in="SourceGraphic" in2="effect1_dropShadow" result="shape"/>
</filter>
<filter id="filter2_d" x="-74" y="452" width="797.606" height="935.017" filterUnits="userSpaceOnUse" color-interpolation-filters="sRGB">
<feFlood flood-opacity="0" result="BackgroundImageFix"/>
<feColorMatrix in="SourceAlpha" type="matrix" values="0 0 0 0 0 0 0 0 0 0 0 0 0 0 0 0 0 0 127 0"/>
<feOffset dy="4"/>
<feGaussianBlur stdDeviation="2"/>
<feColorMatrix type="matrix" values="0 0 0 0 0 0 0 0 0 0 0 0 0 0 0 0 0 0 0.25 0"/>
<feBlend mode="normal" in2="BackgroundImageFix" result="effect1_dropShadow"/>
<feBlend mode="normal" in="SourceGraphic" in2="effect1_dropShadow" result="shape"/>
</filter>
<filter id="filter3_d" x="187" y="-170" width="826.033" height="928.451" filterUnits="userSpaceOnUse" color-interpolation-filters="sRGB">
<feFlood flood-opacity="0" result="BackgroundImageFix"/>
<feColorMatrix in="SourceAlpha" type="matrix" values="0 0 0 0 0 0 0 0 0 0 0 0 0 0 0 0 0 0 127 0"/>
<feOffset dy="4"/>
<feGaussianBlur stdDeviation="2"/>
<feColorMatrix type="matrix" values="0 0 0 0 0 0 0 0 0 0 0 0 0 0 0 0 0 0 0.25 0"/>
<feBlend mode="normal" in2="BackgroundImageFix" result="effect1_dropShadow"/>
<feBlend mode="normal" in="SourceGraphic" in2="effect1_dropShadow" result="shape"/>
</filter>
</defs>
</svg>

