<svg width="186" height="104" viewBox="0 0 186 104" fill="none" xmlns="http://www.w3.org/2000/svg">
<path d="M106.936 70.4608C105.974 70.4608 105.217 70.0873 104.666 69.3402C104.119 68.5931 103.845 67.558 103.845 66.2347C103.845 64.892 104.124 63.847 104.68 63.1C105.242 62.348 106.013 61.972 106.995 61.972C108.025 61.972 108.811 62.3724 109.353 63.1732H109.426C109.314 62.5629 109.258 62.0184 109.258 61.5399V58.9178H111.499V70.3143H109.785L109.353 69.2523H109.258C108.75 70.058 107.976 70.4608 106.936 70.4608ZM107.72 68.681C108.291 68.681 108.708 68.515 108.972 68.183C109.241 67.851 109.387 67.287 109.412 66.4911V66.2494C109.412 65.3705 109.275 64.7406 109.001 64.3597C108.733 63.9789 108.293 63.7885 107.683 63.7885C107.185 63.7885 106.797 64.0009 106.519 64.4257C106.245 64.8456 106.108 65.4584 106.108 66.264C106.108 67.0697 106.248 67.6752 106.526 68.0804C106.804 68.4808 107.202 68.681 107.72 68.681Z" fill="white"/>
<path d="M140.497 35.1465C137.948 35.1465 136.674 33.7476 136.674 30.9497C136.674 29.5581 137.021 28.4961 137.714 27.7637C138.407 27.0264 139.401 26.6577 140.695 26.6577C141.642 26.6577 142.492 26.8433 143.244 27.2144L142.584 28.9429C142.233 28.8013 141.906 28.6865 141.603 28.5986C141.3 28.5059 140.998 28.4595 140.695 28.4595C139.533 28.4595 138.952 29.2847 138.952 30.9351C138.952 32.5366 139.533 33.3374 140.695 33.3374C141.125 33.3374 141.522 33.2812 141.889 33.1689C142.255 33.0518 142.621 32.8711 142.987 32.627V34.5386C142.626 34.7681 142.26 34.9268 141.889 35.0146C141.522 35.1025 141.059 35.1465 140.497 35.1465Z" fill="white"/>
<path d="M14.7275 27.6577C15.6943 27.6577 16.4512 28.0361 16.998 28.793C17.5449 29.5449 17.8184 30.5776 17.8184 31.8911C17.8184 33.2437 17.5352 34.291 16.9688 35.0332C16.4072 35.7754 15.6406 36.1465 14.6689 36.1465C13.707 36.1465 12.9526 35.7974 12.4058 35.0991H12.252L11.8784 36H10.1719V24.6035H12.4058V27.2549C12.4058 27.5918 12.3765 28.1313 12.3179 28.8735H12.4058C12.9282 28.063 13.7021 27.6577 14.7275 27.6577ZM14.0098 29.4448C13.458 29.4448 13.0552 29.6157 12.8013 29.9575C12.5474 30.2944 12.4155 30.8535 12.4058 31.6348V31.8765C12.4058 32.7554 12.5352 33.3853 12.7939 33.7661C13.0576 34.147 13.4727 34.3374 14.0391 34.3374C14.498 34.3374 14.8618 34.1274 15.1304 33.7075C15.4038 33.2827 15.5405 32.6675 15.5405 31.8618C15.5405 31.0562 15.4038 30.4531 15.1304 30.0527C14.8569 29.6475 14.4834 29.4448 14.0098 29.4448Z" fill="white"/>
<rect x="1" y="18.48" width="23.8971" height="23.8971" rx="2" stroke="white" stroke-width="2"/>
<path d="M46.3721 35L45.9399 33.8867H45.8813C45.5054 34.3604 45.1172 34.6899 44.7168 34.8755C44.3213 35.0562 43.8037 35.1465 43.1641 35.1465C42.3779 35.1465 41.7578 34.9219 41.3037 34.4727C40.8545 34.0234 40.6299 33.3838 40.6299 32.5537C40.6299 31.6846 40.9326 31.0449 41.5381 30.6348C42.1484 30.2197 43.0664 29.9902 44.292 29.9463L45.7129 29.9023V29.5435C45.7129 28.7134 45.2881 28.2983 44.4385 28.2983C43.7842 28.2983 43.0151 28.4961 42.1313 28.8916L41.3916 27.3828C42.334 26.8896 43.3789 26.6431 44.5264 26.6431C45.625 26.6431 46.4673 26.8823 47.0532 27.3608C47.6392 27.8394 47.9321 28.5669 47.9321 29.5435V35H46.3721ZM45.7129 31.2061L44.8486 31.2354C44.1992 31.2549 43.7158 31.3721 43.3984 31.5869C43.0811 31.8018 42.9224 32.1289 42.9224 32.5684C42.9224 33.1982 43.2837 33.5132 44.0063 33.5132C44.5239 33.5132 44.9365 33.3643 45.2441 33.0664C45.5566 32.7686 45.7129 32.373 45.7129 31.8799V31.2061Z" fill="white"/>
<rect x="32.7827" y="18.48" width="23.8971" height="23.8971" rx="2" stroke="white" stroke-width="2"/>
<path d="M77.563 28.2471C77.0894 28.2471 76.7183 28.3984 76.4497 28.7012C76.1812 28.999 76.0273 29.4238 75.9883 29.9756H79.123C79.1133 29.4238 78.9692 28.999 78.6909 28.7012C78.4126 28.3984 78.0366 28.2471 77.563 28.2471ZM77.8779 35.1465C76.5596 35.1465 75.5293 34.7827 74.7871 34.0552C74.0449 33.3276 73.6738 32.2974 73.6738 30.9644C73.6738 29.5923 74.0156 28.5327 74.6992 27.7856C75.3877 27.0337 76.3374 26.6577 77.5483 26.6577C78.7056 26.6577 79.6064 26.9873 80.251 27.6465C80.8955 28.3057 81.2178 29.2163 81.2178 30.3784V31.4624H75.937C75.9614 32.0972 76.1494 32.5928 76.501 32.9492C76.8525 33.3057 77.3457 33.4839 77.9805 33.4839C78.4736 33.4839 78.9399 33.4326 79.3794 33.3301C79.8188 33.2275 80.2778 33.064 80.7563 32.8394V34.5679C80.3657 34.7632 79.9482 34.9072 79.5039 35C79.0596 35.0977 78.5176 35.1465 77.8779 35.1465Z" fill="white"/>
<rect x="65.7427" y="18.48" width="23.8971" height="23.8971" rx="2" stroke="white" stroke-width="2"/>
<rect x="96.3486" y="53.7943" width="23.8971" height="23.8971" rx="2" stroke="white" stroke-width="2"/>
<rect x="128.131" y="18.48" width="23.8971" height="23.8971" rx="2" stroke="white" stroke-width="2"/>
<path d="M175.698 29.4888H173.765V36H171.531V29.4888H170.3V28.4121L171.531 27.8115V27.2109C171.531 26.2783 171.76 25.5972 172.219 25.1675C172.678 24.7378 173.413 24.5229 174.424 24.5229C175.195 24.5229 175.881 24.6377 176.482 24.8672L175.911 26.5078C175.461 26.3662 175.046 26.2954 174.666 26.2954C174.348 26.2954 174.119 26.3906 173.977 26.5811C173.835 26.7666 173.765 27.0059 173.765 27.2988V27.8115H175.698V29.4888Z" fill="white"/>
<rect x="161.091" y="18.48" width="23.8971" height="23.8971" rx="2" stroke="white" stroke-width="2"/>
<path d="M117.714 23.3657L123.6 29.2514L117.714 35.1372" stroke="white" stroke-width="2"/>
<path d="M95.3486 29.2514H122.423" stroke="white" stroke-width="2"/>
<path d="M108.886 104V83.4" stroke="white" stroke-width="2"/>
<path d="M103.588 88.6972L108.886 83.4L114.552 88.6972" stroke="white" stroke-width="2"/>
<path d="M138.902 12.7714V1H77.6909V12.7714" stroke="white" stroke-width="2"/>
<path d="M84.1654 7.4743L77.6911 12.7714L71.2168 7.4743" stroke="white" stroke-width="2"/>
</svg>

